<!-- SVG Icon for Theme Manager Extension -->
<svg width="64" height="64" viewBox="0 0 64 64" xmlns="http://www.w3.org/2000/svg">
  <defs>
    <linearGradient id="iconGradient" x1="0%" y1="0%" x2="100%" y2="100%">
      <stop offset="0%" style="stop-color:#3b82f6;stop-opacity:1" />
      <stop offset="100%" style="stop-color:#1d4ed8;stop-opacity:1" />
    </linearGradient>
    <linearGradient id="paletteGradient" x1="0%" y1="0%" x2="100%" y2="100%">
      <stop offset="0%" style="stop-color:#fbbf24;stop-opacity:1" />
      <stop offset="50%" style="stop-color:#f59e0b;stop-opacity:1" />
      <stop offset="100%" style="stop-color:#d97706;stop-opacity:1" />
    </linearGradient>
  </defs>
  
  <!-- Background Circle -->
  <circle cx="32" cy="32" r="28" fill="url(#iconGradient)" stroke="#1e40af" stroke-width="2"/>
  
  <!-- Color Palette Icon -->
  <g transform="translate(16, 16)">
    <!-- Palette Base -->
    <path d="M16 4C9.4 4 4 9.4 4 16s5.4 12 12 12c1.1 0 2-.9 2-2s-.9-2-2-2c-4.4 0-8-3.6-8-8s3.6-8 8-8 8 3.6 8 8c0 .6-.1 1.2-.2 1.8l-2.4-2.4c-.8-.8-2-.8-2.8 0s-.8 2 0 2.8l4.2 4.2c.4.4.9.6 1.4.6s1-.2 1.4-.6c.8-.8.8-2 0-2.8L26.8 12.8C27.6 10.6 28 8.3 28 16c0 6.6-5.4 12-12 12z" fill="#ffffff"/>
    
    <!-- Color Dots -->
    <circle cx="12" cy="8" r="2" fill="#ef4444"/>
    <circle cx="20" cy="8" r="2" fill="#22c55e"/>
    <circle cx="24" cy="12" r="2" fill="#eab308"/>
    <circle cx="24" cy="20" r="2" fill="#8b5cf6"/>
    <circle cx="20" cy="24" r="2" fill="#06b6d4"/>
  </g>
  
  <!-- Brush/Tool Icon -->
  <g transform="translate(40, 40)">
    <path d="M8 2L2 8l4 4 6-6-4-4z" fill="#ffffff" opacity="0.8"/>
    <circle cx="10" cy="10" r="1.5" fill="#ffffff"/>
  </g>
</svg>
